HIERARCHY
ROOT Hips
{
	OFFSET -0.001795 -0.223333 0.028219
	CHANNELS 6 Xposition Yposition Zposition Zrotation Yrotation Xrotation 
	JOINT LeftUpLeg
	{
		OFFSET 0.069520 -0.091406 -0.006815
		CHANNELS 3 Zrotation Yrotation Xrotation
		JOINT LeftLeg
		{
			OFFSET 0.034277 -0.375199 -0.004496
			CHANNELS 3 Zrotation Yrotation Xrotation
			JOINT LeftFoot
			{
				OFFSET -0.013596 -0.397961 -0.043693
				CHANNELS 3 Zrotation Yrotation Xrotation
				JOINT LeftToe
				{
					OFFSET 0.026358 -0.055791 0.119288
					CHANNELS 3 Zrotation Yrotation Xrotation
					End Site
					{
						OFFSET 0.000000 0.000000 0.000000
					}
				}
			}
		}
	}
	JOINT RightUpLeg
	{
		OFFSET -0.067670 -0.090522 -0.004320
		CHANNELS 3 Zrotation Yrotation Xrotation
		JOINT RightLeg
		{
			OFFSET -0.038290 -0.382569 -0.008850
			CHANNELS 3 Zrotation Yrotation Xrotation
			JOINT RightFoot
			{
				OFFSET 0.015774 -0.398415 -0.042312
				CHANNELS 3 Zrotation Yrotation Xrotation
				JOINT RightToe
				{
					OFFSET -0.025372 -0.048144 0.123348
					CHANNELS 3 Zrotation Yrotation Xrotation
					End Site
					{
						OFFSET 0.000000 0.000000 0.000000
					}
				}
			}
		}
	}
	JOINT Spine
	{
		OFFSET -0.002533 0.108963 -0.026696
		CHANNELS 3 Zrotation Yrotation Xrotation
		JOINT Spine1
		{
			OFFSET 0.005487 0.135180 0.001092
			CHANNELS 3 Zrotation Yrotation Xrotation
			JOINT Spine2
			{
				OFFSET 0.001457 0.052922 0.025425
				CHANNELS 3 Zrotation Yrotation Xrotation
				JOINT Neck
				{
					OFFSET -0.002778 0.213870 -0.042857
					CHANNELS 3 Zrotation Yrotation Xrotation
					JOINT Head
					{
						OFFSET 0.005152 0.064970 0.051349
						CHANNELS 3 Zrotation Yrotation Xrotation
						End Site
						{
							OFFSET 0.000000 0.000000 0.000000
						}
					}
				}
				JOINT LeftShoulder
				{
					OFFSET 0.078845 0.121749 -0.034090
					CHANNELS 3 Zrotation Yrotation Xrotation
					JOINT LeftArm
					{
						OFFSET 0.090977 0.030469 -0.008868
						CHANNELS 3 Zrotation Yrotation Xrotation
						JOINT LeftForeArm
						{
							OFFSET 0.259612 -0.012772 -0.027456
							CHANNELS 3 Zrotation Yrotation Xrotation
							JOINT LeftHand
							{
								OFFSET 0.249234 0.008986 -0.001171
								CHANNELS 3 Zrotation Yrotation Xrotation
								End Site
								{
									OFFSET 0.000000 0.000000 0.000000
								}
							}
						}
					}
				}
				JOINT RightShoulder
				{
					OFFSET -0.081759 0.118833 -0.038615
					CHANNELS 3 Zrotation Yrotation Xrotation
					JOINT RightArm
					{
						OFFSET -0.096012 0.032551 -0.009143
						CHANNELS 3 Zrotation Yrotation Xrotation
						JOINT RightForeArm
						{
							OFFSET -0.253742 -0.013329 -0.021401
							CHANNELS 3 Zrotation Yrotation Xrotation
							JOINT RightHand
							{
								OFFSET -0.255298 0.007772 -0.005559
								CHANNELS 3 Zrotation Yrotation Xrotation
								End Site
								{
									OFFSET 0.000000 0.000000 0.000000
								}
							}
						}
					}
				}
			}
		}
	}
}
MOTION
Frames: 17
Frame Time: 0.050000
0.000000 0.851321 0.000000 -1.705885 12.697642 3.774597 3.385044 -1.787689 -20.454637 -2.913025 -11.619565 94.941627 -4.987323 -3.851934 12.027838 0.000000 0.000000 0.000000 10.773234 3.862451 -24.232934 2.004756 -2.635411 50.747353 -6.336023 -15.642967 -21.496030 0.000000 0.000000 0.000000 5.874373 -2.062310 16.891643 5.542864 -1.030140 -15.768027 -3.942624 10.941318 16.920278 15.169720 -8.504458 -11.410367 0.000000 0.000000 0.000000 0.742654 3.188631 -1.011782 -50.379113 21.442499 -17.322260 -105.080420 -43.643579 49.166797 0.000000 0.000000 0.000000 4.873605 -5.566768 -1.680274 64.954567 2.581076 -3.240438 107.303114 78.776565 113.790899 0.000000 0.000000 0.000000 
0.004046 0.916450 -0.005278 -0.258598 4.054414 3.425031 0.317233 -2.657266 -26.944300 -3.583322 -2.351555 81.344943 1.240422 -0.372390 -6.377088 0.000000 0.000000 0.000000 10.545544 0.797127 -5.679418 -3.684645 2.450920 33.584227 -0.776398 0.414507 -5.068946 0.000000 0.000000 0.000000 1.935953 -1.200605 17.877327 -2.254331 1.190956 -10.938390 2.260792 20.992262 12.516022 22.127373 -10.744654 -17.627697 0.000000 0.000000 0.000000 -0.323172 7.913603 -2.919239 -43.395609 25.476069 -15.877280 -99.693028 -38.313796 36.500987 0.000000 0.000000 0.000000 9.449914 -7.181725 -1.722184 54.994426 7.893610 -0.988420 133.811279 71.806549 139.811854 0.000000 0.000000 0.000000 
0.007483 0.983897 -0.000176 1.507222 -0.218130 8.520017 1.140741 -2.576557 -31.332906 -5.692338 1.488177 42.678987 -1.833886 -4.787155 -1.337170 0.000000 0.000000 0.000000 7.197615 -0.832094 3.085411 -7.862456 3.170289 20.823227 7.111194 5.035284 18.706620 0.000000 0.000000 0.000000 0.770675 -0.360331 7.042530 -5.825884 2.577063 -3.919082 2.843661 21.764998 6.251674 14.993439 -6.715882 -14.296565 0.000000 0.000000 0.000000 0.317896 14.642083 -4.598469 -37.496747 27.828094 -13.957143 -97.844841 -40.052860 38.791987 0.000000 0.000000 0.000000 7.618425 1.861552 2.287157 55.781351 8.902966 0.022701 135.794548 73.802991 141.067546 0.000000 0.000000 0.000000 
0.010814 1.018538 0.007315 0.929717 -0.807597 10.158888 -1.570669 -2.943805 -28.998851 -1.329823 -0.108375 11.944430 -3.907106 0.168380 17.275776 0.000000 0.000000 0.000000 6.182649 -1.665090 8.764612 -8.420461 3.277512 20.197923 9.321054 1.356119 33.777752 0.000000 0.000000 0.000000 -1.439539 0.008864 1.948993 0.905287 -0.153945 -7.643329 0.850882 29.729548 14.141757 20.331328 -8.618341 -17.734722 0.000000 0.000000 0.000000 2.762073 10.084583 -2.420145 -39.461257 27.797818 -16.128583 -104.310524 -42.343363 42.420979 0.000000 0.000000 0.000000 6.420412 -5.579307 -0.822438 60.470885 8.615434 1.081118 126.518357 67.801234 131.681982 0.000000 0.000000 0.000000 
0.012028 1.012160 0.013147 -1.757484 -2.830490 11.409649 0.484490 -2.347577 -29.509990 -2.397213 0.188473 9.110203 -2.753642 2.082166 18.722857 0.000000 0.000000 0.000000 5.545050 -1.352787 7.119855 -7.888081 4.776570 31.472724 5.204120 -4.430975 34.116061 0.000000 0.000000 0.000000 0.239291 0.005834 -0.341325 -1.514176 0.737371 -7.518892 4.042535 23.649004 12.593492 14.621343 -8.401315 -9.151965 0.000000 0.000000 0.000000 2.595302 10.950086 -2.707562 -43.747594 28.158623 -17.441300 -106.919179 -45.078607 51.782797 0.000000 0.000000 0.000000 9.406214 -1.605010 1.045408 56.911816 4.197864 -2.815067 120.705586 63.508903 114.159161 0.000000 0.000000 0.000000 
0.016997 0.977914 0.013984 -1.965201 -5.551536 9.121229 -2.637746 -2.385036 -23.783412 -3.349970 0.496511 14.316292 -0.436294 3.737560 13.724909 0.000000 0.000000 0.000000 3.169249 -0.599558 3.443216 -6.289354 7.127116 47.875110 1.111019 -6.636486 21.413009 0.000000 0.000000 0.000000 0.819720 -0.106731 1.575831 -4.962422 1.945464 -10.577767 7.172323 19.552417 15.901091 16.658256 -7.655037 -17.549336 0.000000 0.000000 0.000000 -0.475398 6.316071 -2.424934 -48.373764 19.744285 -15.084848 -116.448836 -51.935156 72.264897 0.000000 0.000000 0.000000 10.976795 -6.304042 -1.759685 57.144197 -3.108341 -7.132169 109.595874 58.683678 92.342451 0.000000 0.000000 0.000000 
0.032876 0.934506 0.007138 -1.609097 -0.471850 6.504032 -7.560311 -2.357729 -16.297878 -1.203979 -0.340084 20.513513 2.611177 5.629675 0.211679 0.000000 0.000000 0.000000 -1.159859 0.694792 -7.204233 1.060586 2.670803 70.698639 -3.811174 -9.872602 1.055029 0.000000 0.000000 0.000000 1.514494 -0.335976 5.339424 2.000510 -0.711010 -4.875186 -3.234898 13.550521 11.258654 16.862399 -7.170523 -19.694380 0.000000 0.000000 0.000000 -6.463522 0.650691 -2.019517 -50.351635 4.198275 -8.440220 -128.147862 -62.526927 99.684695 0.000000 0.000000 0.000000 13.745078 -9.210831 -3.505497 53.358235 -14.016779 -11.071543 97.647970 54.519588 71.656944 0.000000 0.000000 0.000000 
0.028039 0.921314 0.007343 -2.537150 0.819632 5.455892 -6.280636 -0.439286 -4.183209 -0.616494 -0.568809 20.088309 4.446076 5.949773 -10.297063 0.000000 0.000000 0.000000 -0.515129 2.161806 -22.613256 2.629192 0.876882 84.098085 -4.529990 -12.142376 3.748157 0.000000 0.000000 0.000000 3.938790 -0.663112 7.235058 0.682784 -0.124684 -5.493419 -4.067422 3.221945 12.068225 12.312096 -6.281663 -16.053725 0.000000 0.000000 0.000000 -7.252360 -1.757021 -0.251285 -49.930793 -8.499319 -3.174202 -149.311246 -59.829305 133.906588 0.000000 0.000000 0.000000 13.489505 -15.650889 -8.159649 47.238415 -22.877861 -13.142323 92.582522 39.918497 44.933500 0.000000 0.000000 0.000000 
0.024119 0.943592 0.014097 -4.586719 4.368093 4.902185 -2.899705 1.101017 9.285922 3.599289 -1.264087 12.202569 -0.531533 -0.095252 1.941347 0.000000 0.000000 0.000000 0.538931 2.993211 -31.759269 5.747744 -4.057117 73.563859 -7.117320 -17.556856 0.073190 0.000000 0.000000 0.000000 5.013801 -0.828862 7.742172 7.537596 -2.606542 -8.588731 -7.935807 -4.195133 12.478974 10.871751 -7.135505 -9.768063 0.000000 0.000000 0.000000 -1.872093 -3.688345 1.234273 -56.283883 -14.844212 -0.282695 -156.027528 -59.845662 149.276540 0.000000 0.000000 0.000000 9.260748 -21.524603 -10.415124 42.422078 -28.433373 -13.474529 96.159683 31.744619 34.943443 0.000000 0.000000 0.000000 
0.018782 0.974254 0.025998 -4.679143 6.791684 7.778654 -0.072304 1.168056 15.283153 5.639228 -1.259175 7.711791 -5.563473 -2.291720 14.868606 0.000000 0.000000 0.000000 2.252696 3.398352 -34.092051 5.492601 -2.423575 43.761676 -8.529203 -20.991330 0.150506 0.000000 0.000000 0.000000 5.451244 -0.556445 3.746707 6.060592 -1.959704 -8.749742 -6.510683 -16.673468 12.750730 6.118498 -4.689404 -9.474631 0.000000 0.000000 0.000000 -3.326255 1.107331 -0.140753 -55.381747 -15.761181 1.103619 -153.354151 -60.760113 155.162229 0.000000 0.000000 0.000000 -0.224245 -18.730028 -6.336393 47.565457 -30.419214 -17.754434 92.509889 30.757063 25.943929 0.000000 0.000000 0.000000 
0.008959 0.985613 0.041925 -3.838573 5.530293 9.928139 2.233753 0.816040 15.545683 3.719270 -1.413210 13.794996 -7.135150 0.921203 28.058528 0.000000 0.000000 0.000000 5.169980 4.054495 -32.174694 0.373809 0.471766 20.917863 -7.863313 -19.433840 3.685463 0.000000 0.000000 0.000000 3.340156 -0.221354 0.993201 8.195809 -2.546510 -10.893862 -8.722636 -14.111504 12.581979 7.311632 -5.925332 -3.647048 0.000000 0.000000 0.000000 -2.174464 -8.032069 3.339523 -52.949287 -10.975439 -1.399219 -153.790780 -63.085401 154.654562 0.000000 0.000000 0.000000 -3.354467 -20.524039 -5.805443 50.567115 -34.679560 -20.889072 98.472563 28.034095 27.035162 0.000000 0.000000 0.000000 
0.009692 0.971762 0.055979 -1.247081 6.025829 12.040613 0.150294 0.767501 9.567404 5.249675 -3.673292 30.472665 -8.527540 -2.001325 25.235949 0.000000 0.000000 0.000000 4.029505 3.385652 -29.300753 1.163287 0.131024 13.205670 -7.427694 -18.423067 6.735890 0.000000 0.000000 0.000000 0.989592 0.097979 -3.407684 9.894899 -3.269661 -9.799481 -10.904090 -14.533035 13.331850 7.258828 -6.336045 0.242023 0.000000 0.000000 0.000000 0.871800 -3.377168 1.250528 -56.157251 -7.566834 -2.731361 -131.864010 -61.124285 120.775879 0.000000 0.000000 0.000000 -5.566610 -16.025795 -3.684768 59.175292 -28.676020 -22.278267 96.178298 34.787244 34.315033 0.000000 0.000000 0.000000 
0.003007 0.927483 0.062524 -2.243177 3.257225 9.852481 2.699596 0.206660 5.053252 1.365026 -3.599175 51.788679 -3.193879 0.711221 14.788703 0.000000 0.000000 0.000000 8.611335 3.737879 -24.073742 0.714459 0.516118 22.315729 -8.138450 -20.483552 -4.523070 0.000000 0.000000 0.000000 3.561955 -0.039986 -1.652541 5.858060 -1.902194 -9.034032 -6.483472 -9.698219 12.864176 4.726449 -3.910271 -3.134045 0.000000 0.000000 0.000000 -0.395083 -1.315807 0.534777 -58.597267 0.503162 -7.064333 -107.331384 -59.296990 86.218624 0.000000 0.000000 0.000000 2.616831 -12.949684 -5.206519 61.764238 -19.612863 -17.753087 98.108284 47.374208 51.981496 0.000000 0.000000 0.000000 
-0.003970 0.883000 0.052347 -2.994284 1.831297 7.490842 6.196100 -0.467970 -6.985583 -3.984308 -0.170849 75.816160 0.996620 1.270906 -1.928851 0.000000 0.000000 0.000000 10.969628 3.346920 -19.357950 0.959089 0.820505 34.007581 -9.491723 -25.520476 -15.456175 0.000000 0.000000 0.000000 2.621035 -0.395336 4.689593 3.448125 -0.642583 -15.285224 -1.724470 -1.937448 17.488475 8.519136 -5.113443 -13.322334 0.000000 0.000000 0.000000 -2.380536 0.257067 -0.213920 -56.111189 9.014012 -11.832867 -93.735561 -51.449944 60.082570 0.000000 0.000000 0.000000 10.612555 -5.914866 -3.543888 59.422253 -3.098716 -8.599864 92.455774 62.616412 69.003116 0.000000 0.000000 0.000000 
0.003657 0.878596 0.046241 -2.269974 -1.169455 4.675434 4.090343 -1.157006 -20.082461 -5.168536 2.960865 85.974156 4.684474 9.136004 -2.658460 0.000000 0.000000 0.000000 11.362956 0.701075 -5.535899 -5.240975 3.684192 32.687800 -8.174133 -19.258016 -19.201021 0.000000 0.000000 0.000000 2.106780 -0.459306 6.861477 0.106681 0.077656 -5.140179 3.981277 5.165570 10.699225 6.309666 -2.144258 -17.839355 0.000000 0.000000 0.000000 -5.821612 8.240206 -4.003415 -46.115648 19.546527 -12.969677 -92.539340 -37.773320 40.364811 0.000000 0.000000 0.000000 5.671483 -2.109363 -1.025036 62.510012 10.954291 -0.379184 86.071830 73.009794 75.928402 0.000000 0.000000 0.000000 
0.010874 0.903072 0.041822 -0.867603 -3.065504 5.573429 1.212478 -2.327624 -31.679446 -6.331731 4.859188 78.268227 7.145008 14.554901 -1.882497 0.000000 0.000000 0.000000 8.026488 -1.386477 6.318435 -10.034274 4.233606 22.585381 -4.209381 -7.549657 -7.884003 0.000000 0.000000 0.000000 -1.401143 -0.153219 7.154713 0.891824 -0.264630 -5.370607 4.411022 16.596193 10.024727 8.271439 -2.597243 -15.392010 0.000000 0.000000 0.000000 -2.613203 7.727795 -3.419226 -40.598286 26.528344 -14.108622 -94.331978 -31.866274 29.960241 0.000000 0.000000 0.000000 4.746272 -0.429869 0.286791 60.868721 16.875540 4.187013 124.120988 78.207629 127.799535 0.000000 0.000000 0.000000 
0.020141 0.940660 0.045949 -0.733237 -4.745745 8.140057 0.377467 -2.728075 -37.506551 -6.755300 3.792295 53.760846 7.729645 15.934114 -1.273036 0.000000 0.000000 0.000000 3.836077 -1.673288 11.782344 -9.692371 3.685576 19.383190 6.153632 3.273775 17.211717 0.000000 0.000000 0.000000 -2.098565 -0.002308 3.876157 -0.098496 0.137362 -6.153941 5.600693 22.333882 11.422310 5.506469 -0.141138 -16.117888 0.000000 0.000000 0.000000 1.220357 11.117903 -3.275575 -38.609377 29.553486 -15.053935 -96.032605 -30.881640 27.529486 0.000000 0.000000 0.000000 6.062815 1.362455 1.604329 58.034855 18.652657 4.934977 143.033626 72.830276 149.860584 0.000000 0.000000 0.000000 
